<?xml version="1.0" encoding="utf-8"?>
<!-- Generator: Adobe Illustrator 14.0.0, SVG Export Plug-In  -->
<!DOCTYPE svg PUBLIC "-//W3C//DTD SVG 1.1//EN" "http://www.w3.org/Graphics/SVG/1.1/DTD/svg11.dtd" [
	<!ENTITY ns_flows "http://ns.adobe.com/Flows/1.0/">
]>
<svg version="1.1"
	 xmlns="http://www.w3.org/2000/svg" xmlns:xlink="http://www.w3.org/1999/xlink" xmlns:a="http://ns.adobe.com/AdobeSVGViewerExtensions/3.0/"
	 x="0px" y="0px" width="46px" height="60px" viewBox="0 0 46 60" enable-background="new 0 0 46 60" xml:space="preserve">
<defs>
</defs>
<g>
	<g>
		<path fill-rule="evenodd" clip-rule="evenodd" d="M42.038,13.973v-3.583h-3.463v3.583h-7.046V6.927h3.464V3.463h-3.464V0H0v59.713
			h45.621v-45.74H42.038z M42.038,56.13H3.463V3.463h24.482v13.973h14.092V56.13z M38.575,10.391V6.927h-3.583v3.464H38.575z
			 M17.437,17.437h-3.463v3.583H10.39v-7.046H6.927v10.509h17.556v-3.463h-7.046V17.437z M6.927,31.528h7.046v7.046h10.509V27.946
			H6.927V31.528z M17.437,31.528h3.583v3.463h-3.583V31.528z M17.437,42.038H6.927v10.509h17.556v-3.463h-7.046V42.038z
			 M13.973,49.084H10.39v-3.463h3.583V49.084z"/>
	</g>
</g>
</svg>
