<?xml version="1.0" encoding="utf-8"?>
<!-- Generator: Adobe Illustrator 14.0.0, SVG Export Plug-In  -->
<!DOCTYPE svg PUBLIC "-//W3C//DTD SVG 1.1//EN" "http://www.w3.org/Graphics/SVG/1.1/DTD/svg11.dtd" [
	<!ENTITY ns_flows "http://ns.adobe.com/Flows/1.0/">
]>
<svg version="1.1"
	 xmlns="http://www.w3.org/2000/svg" xmlns:xlink="http://www.w3.org/1999/xlink" xmlns:a="http://ns.adobe.com/AdobeSVGViewerExtensions/3.0/"
	 x="0px" y="0px" width="46px" height="60px" viewBox="0 0 46 60" enable-background="new 0 0 46 60" xml:space="preserve">
<defs>
</defs>
<g>
	<g>
		<path fill-rule="evenodd" clip-rule="evenodd" d="M42.039,13.973v-3.582h-3.465v3.582h-7.045V6.926h3.463V3.463h-3.463V0H0v59.712
			h45.621v-45.74H42.039z M42.039,56.13H3.463V3.463h24.482v13.974h14.094V56.13z M38.574,10.391V6.926h-3.582v3.465H38.574z
			 M13.973,27.945H6.927v3.583h17.555V21.02H13.973V27.945z M17.437,24.482h3.582v3.463h-3.582V24.482z M10.39,34.992H6.927v3.583
			h3.463V34.992z M13.973,38.574h10.509v-3.583H13.973V38.574z M13.973,49.083H6.927v3.463h17.555V42.039H13.973V49.083z
			 M17.437,45.621h3.582v3.463h-3.582V45.621z"/>
	</g>
</g>
</svg>
