<?xml version="1.0" encoding="UTF-8" standalone="no"?>
<!-- Created with Inkscape (http://www.inkscape.org/) -->

<svg
   xmlns:dc="http://purl.org/dc/elements/1.1/"
   xmlns:cc="http://creativecommons.org/ns#"
   xmlns:rdf="http://www.w3.org/1999/02/22-rdf-syntax-ns#"
   xmlns:svg="http://www.w3.org/2000/svg"
   xmlns="http://www.w3.org/2000/svg"
   version="1.1"
   width="139.97435"
   height="23.293501"
   id="svg3004"
   xml:space="preserve"><metadata
     id="metadata3010"><rdf:RDF><cc:Work
         rdf:about=""><dc:format>image/svg+xml</dc:format><dc:type
           rdf:resource="http://purl.org/dc/dcmitype/StillImage" /><dc:title></dc:title></cc:Work></rdf:RDF></metadata><defs
     id="defs3008"><clipPath
       id="clipPath3020"><path
         d="M 0,0 155,0 155,240 0,240 0,0 z"
         id="path3022" /></clipPath><clipPath
       id="clipPath3096"><path
         d="M 0.014999,240.93 155.91,240.93 155.91,0 0.014999,0 l 0,240.93 z"
         id="path3098" /></clipPath><clipPath
       id="clipPath3102"><path
         d="M 0,0 155,0 155,240 0,240 0,0 z"
         id="path3104" /></clipPath><clipPath
       id="clipPath3114"><path
         d="M 0,0 155,0 155,240 0,240 0,0 z"
         id="path3116" /></clipPath></defs><g
     transform="matrix(1.25,0,0,-1.25,-9.7498962,156.50237)"
     id="g3012"><g
       id="g3014" /><g
       id="g3110"><g
         clip-path="url(#clipPath3114)"
         id="g3112"><text
           transform="matrix(1,0,0,-1,123.811,110.739)"
           id="text3118"><tspan
             x="0 2.7509999 6.0689998 8.3299999"
             y="0"
             id="tspan3120"
             style="font-size:7px;font-variant:normal;font-weight:300;writing-mode:lr-tb;fill:#0a0807;fill-opacity:1;fill-rule:nonzero;stroke:none;font-family:MyriadPro;-inkscape-font-specification:MyriadPro-Light">sàrl</tspan></text>
<path
           d="m 40.305,123.887 c 0.417,0.444 1.124,0.444 1.559,0.018 0.451,-0.425 0.451,-1.137 0.017,-1.579 -0.435,-0.427 -1.141,-0.427 -1.576,0.017 -0.217,0.195 -0.326,0.48 -0.326,0.781 0,0.285 0.109,0.569 0.326,0.763"
           id="path3122"
           style="fill:#231f20;fill-opacity:1;fill-rule:nonzero;stroke:none" /><path
           d="m 44.976,107.496 9.8662,0 0,16.68 -9.8662,0 0,-16.68 z"
           id="path3124"
           style="fill:#303191;fill-opacity:1;fill-rule:nonzero;stroke:none" /><path
           d="m 12.897,112.472 2.681,0 c 0.739,0 1.165,0.399 1.165,1.233 l 0,4.112 c 0,0.797 -0.426,1.178 -1.165,1.178 l -2.681,0 c -0.777,0 -1.202,-0.399 -1.202,-1.178 l 0,-4.04 c 0,-0.889 0.425,-1.305 1.202,-1.305 z m -2.866,5.87 c 0,1.341 0.777,2.101 2.219,2.264 0.149,0 0.296,0.019 0.443,0.019 l 3.051,0 c 0.148,0 0.277,-0.019 0.407,-0.037 1.48,-0.198 2.256,-0.978 2.256,-2.246 l 0,-5.091 c 0,-0.942 -0.388,-1.576 -1.369,-2.12 -0.369,-0.199 -0.758,-0.289 -1.294,-0.289 l -3.051,0 c -1.607,0 -2.662,1.051 -2.662,2.409 l 0,5.091"
           id="path3126"
           style="fill:#231f20;fill-opacity:1;fill-rule:nonzero;stroke:none" /><path
           d="m 23.606,113.433 c 0.037,-0.363 0.129,-0.562 0.295,-0.688 0.222,-0.182 0.462,-0.273 0.611,-0.273 l 3.161,0 c 0.056,0 0.093,0 0.13,0.019 0.499,0.091 0.702,0.289 0.794,0.76 0.019,0.054 0.019,0.127 0.019,0.182 l 0,4.656 c 0,0.036 0,0.072 0,0.125 -0.056,0.527 -0.184,0.671 -0.72,0.762 -0.039,0.019 -0.093,0.019 -0.149,0.019 l -2.977,0 c -0.776,0 -1.182,-0.364 -1.182,-0.997 l 0,-4.384 c 0,-0.072 0,-0.128 0.018,-0.181 z m -1.683,4.71 c 0,0.852 0.277,1.467 0.794,1.92 0.445,0.38 0.963,0.562 1.812,0.562 l 3.125,0 c 0.778,0 1.239,-0.127 1.646,-0.417 0.702,-0.506 0.98,-1.087 0.98,-1.957 l 0,-4.692 c 0,-0.814 -0.167,-1.286 -0.628,-1.811 -0.537,-0.598 -1.203,-0.906 -1.923,-0.906 l -4.141,0 0,-3.189 -1.665,0 0,10.49"
           id="path3128"
           style="fill:#231f20;fill-opacity:1;fill-rule:nonzero;stroke:none" /><path
           d="m 33.833,123.885 1.664,0 0,-3.26 1.72,0 0,-1.63 -1.72,0 0,-8.153 -1.664,0 0,13.043"
           id="path3130"
           style="fill:#231f20;fill-opacity:1;fill-rule:nonzero;stroke:none" /><path
           d="m 40.27,110.842 1.665,0 0,9.783 -1.665,0 0,-9.783 z"
           id="path3132"
           style="fill:#231f20;fill-opacity:1;fill-rule:nonzero;stroke:none" /><path
           d="m 46.653,118.161 c 0,1.395 0.702,2.229 2.308,2.427 0.15,0.018 0.298,0.037 0.445,0.037 l 3.827,0 0,-1.63 -3.827,0 c -0.092,0 -0.222,-0.019 -0.387,-0.073 -0.445,-0.145 -0.703,-0.49 -0.703,-0.979 l 0,-4.257 c 0,-0.072 0,-0.144 0.018,-0.218 0.074,-0.343 0.24,-0.615 0.462,-0.778 0.204,-0.146 0.425,-0.218 0.666,-0.218 l 3.789,0 0,-1.63 -3.808,0 c -0.59,0 -1.035,0.109 -1.442,0.344 -0.905,0.489 -1.348,1.25 -1.348,2.138 l 0,4.837"
           id="path3134"
           style="fill:#fffccc;fill-opacity:1;fill-rule:nonzero;stroke:none" /><path
           d="m 60.282,112.472 2.681,0 c 0.739,0 1.165,0.399 1.165,1.233 l 0,4.112 c 0,0.797 -0.426,1.178 -1.165,1.178 l -2.681,0 c -0.776,0 -1.201,-0.399 -1.201,-1.178 l 0,-4.04 c 0,-0.889 0.425,-1.305 1.201,-1.305 z m -2.866,5.87 c 0,1.341 0.776,2.101 2.219,2.264 0.147,0 0.296,0.019 0.444,0.019 l 3.05,0 c 0.148,0 0.277,-0.019 0.407,-0.037 1.479,-0.198 2.255,-0.978 2.255,-2.246 l 0,-5.091 c 0,-0.942 -0.388,-1.576 -1.368,-2.12 -0.369,-0.199 -0.757,-0.289 -1.294,-0.289 l -3.05,0 c -1.609,0 -2.663,1.051 -2.663,2.409 l 0,5.091"
           id="path3136"
           style="fill:#231f20;fill-opacity:1;fill-rule:nonzero;stroke:none" /><path
           d="m 71.063,113.396 c 0.093,-0.579 0.297,-0.814 0.703,-0.905 0.075,-0.019 0.129,-0.019 0.185,-0.019 l 2.922,0 c 0.221,0 0.461,0.072 0.647,0.236 0.295,0.199 0.444,0.506 0.444,0.924 l 0,4.311 c 0,0.688 -0.242,0.979 -0.907,1.033 -0.074,0.019 -0.13,0.019 -0.184,0.019 l -2.738,0 c -0.775,0 -1.09,-0.309 -1.09,-1.087 l 0,-4.403 c 0,-0.037 0,-0.072 0.018,-0.109 z m -1.681,4.765 c 0,0.144 0.018,0.307 0.035,0.453 0.242,1.359 1.073,2.011 2.664,2.011 l 3.883,0 0,3.26 1.664,0 0,-10.29 c 0,-0.85 -0.166,-1.286 -0.703,-1.883 -0.573,-0.617 -1.11,-0.87 -1.794,-0.87 l -3.273,0 c -0.277,0 -0.591,0.072 -0.98,0.235 -1.035,0.453 -1.496,1.178 -1.496,2.319 l 0,4.765"
           id="path3138"
           style="fill:#231f20;fill-opacity:1;fill-rule:nonzero;stroke:none" /><path
           d="m 82.66,115.788 4.862,2.21 c 0,0.036 0,0.091 0,0.145 0,0.634 -0.259,0.852 -1.017,0.852 l -2.718,0 c -0.796,0 -1.127,-0.364 -1.127,-1.233 l 0,-1.974 z m -1.665,2.01 c 0,1.866 0.979,2.827 3.088,2.827 l 2.477,0 c 1.627,0 2.626,-0.923 2.626,-2.5 l 0,-1.16 -6.526,-2.971 0,-0.326 c 0,-0.036 0,-0.073 0,-0.109 0.147,-0.887 0.35,-1.087 1.145,-1.087 l 5.491,0 0,-1.63 -5.583,0 c -0.981,0 -1.627,0.272 -2.163,0.942 -0.353,0.453 -0.555,1.013 -0.555,1.631 l 0,4.383"
           id="path3140"
           style="fill:#231f20;fill-opacity:1;fill-rule:nonzero;stroke:none" /><path
           d="m 99.577,117.984 c 0,1.811 0.869,2.7 2.682,2.7 l 3.9,0 0,-0.598 -3.807,0 c -0.704,0 -1.054,-0.09 -1.351,-0.271 -0.647,-0.399 -0.832,-0.799 -0.832,-1.741 l 0,-4.475 c 0,-0.833 0.24,-1.339 0.72,-1.738 0.426,-0.345 0.778,-0.452 1.702,-0.452 l 3.625,0 0,-0.581 -3.661,0 c -0.851,0 -1.222,0.073 -1.609,0.254 -0.944,0.471 -1.369,1.213 -1.369,2.446 l 0,4.456"
           id="path3142"
           style="fill:#231f20;fill-opacity:1;fill-rule:nonzero;stroke:none" /><path
           d="m 110.02,123.873 0.591,0 0,-3.189 3.52,0 c 2.44,0 3.327,-0.798 3.327,-2.899 l 0,-6.957 -0.592,0 0,6.921 c 0,1.667 -0.701,2.337 -2.386,2.337 l -3.869,0 0,-9.258 -0.591,0 0,13.045"
           id="path3144"
           style="fill:#231f20;fill-opacity:1;fill-rule:nonzero;stroke:none" /><path
           d="m 93.791,110.842 1.6641,0 0,1.63 -1.6641,0 0,-1.63 z"
           id="path3146"
           style="fill:#231f20;fill-opacity:1;fill-rule:nonzero;stroke:none" /></g></g></g></svg>